<svg xmlns="http://www.w3.org/2000/svg" width="234.987" height="73.357" viewBox="0 0 234.987 73.357">
  <g transform="translate(350.194 -491.965)">
    <g transform="translate(-350.194 491.965)">
      <g transform="translate(19.269 41.915)">
        <g transform="translate(0)">
          <path d="M-139.893,922.236a60.365,60.365,0,0,0,2.789,8.294c1.858,4.406,5.021,10.316,9.711,14.084a103.427,103.427,0,0,0-12.5,9.063,103.5,103.5,0,0,0-12.5-9.063c4.69-3.769,7.853-9.678,9.711-14.084a60.47,60.47,0,0,0,2.79-8.3" transform="translate(152.393 -922.236)" fill="#a7d5c2"/>
        </g>
      </g>
      <g transform="translate(19.269 0)">
        <g transform="translate(0)">
          <path d="M-139.893,491.965a103.348,103.348,0,0,0,12.5,9.062c-4.69,3.768-7.854,9.678-9.713,14.084a60.437,60.437,0,0,0-2.789,8.293,60.439,60.439,0,0,0-2.788-8.293c-1.858-4.406-5.021-10.315-9.712-14.085a103.427,103.427,0,0,0,12.5-9.062" transform="translate(152.393 -491.965)" fill="#f07f3d"/>
        </g>
      </g>
      <g transform="translate(36.364 39.318)">
        <g transform="translate(0)">
          <path d="M23.087,895.574a60.4,60.4,0,0,0,8.514,1.714,50.341,50.341,0,0,0,6.219.4,30,30,0,0,0,10.834-1.772,103.443,103.443,0,0,0,1.6,15.357,103.421,103.421,0,0,0-14.1,6.3c-1.086-6.8-6.043-15.115-13.062-22" transform="translate(-23.087 -895.574)" fill="#a7d5c2"/>
        </g>
      </g>
      <g transform="translate(0 12.045)">
        <g>
          <path d="M-336.09,615.606c1.086,6.8,6.043,15.116,13.061,22a60.433,60.433,0,0,0-8.513-1.714,50.32,50.32,0,0,0-6.218-.4,30.01,30.01,0,0,0-10.836,1.773,103.515,103.515,0,0,0-1.6-15.357,103.385,103.385,0,0,0,14.1-6.3" transform="translate(350.194 -615.606)" fill="#f07f3d"/>
        </g>
      </g>
      <g transform="translate(0.011 39.343)">
        <g>
          <path d="M-322.9,895.834a60.427,60.427,0,0,0-5.743,6.518c-2.886,3.812-6.422,9.506-7.342,15.452a103.536,103.536,0,0,0-14.1-6.294,103.477,103.477,0,0,0,1.6-15.361,30.614,30.614,0,0,0,10.988,1.777,55.722,55.722,0,0,0,14.6-2.093" transform="translate(350.086 -895.834)" fill="#a7d5c2"/>
        </g>
      </g>
      <g transform="translate(36.356 12.047)">
        <g transform="translate(0)">
          <path d="M36.092,615.631a103.486,103.486,0,0,0,14.1,6.295,103.355,103.355,0,0,0-1.6,15.361A30.614,30.614,0,0,0,37.6,635.509a55.723,55.723,0,0,0-14.6,2.093,60.429,60.429,0,0,0,5.743-6.518c2.887-3.812,6.423-9.507,7.342-15.453" transform="translate(-23.007 -615.631)" fill="#f07f3d"/>
        </g>
      </g>
    </g>
    <g transform="translate(-273.216 507.714)">
      <path d="M456.417,676.956c-.972,1.878-3.465,3.627-7.933,3.627-3.562,0-6.055-.939-7.383-2.817-.874-1.2-1.1-1.781-1.1-4.792V657.625h5.828v14.733c0,2.072.648,3.465,2.688,3.465,2.072,0,2.655-1.166,2.655-3.368v-14.83h5.8v15.607A7.706,7.706,0,0,1,456.417,676.956Z" transform="translate(-440 -657.236)" fill="#02744f"/>
      <path d="M666.639,680.194l-3.983-7.836a34.887,34.887,0,0,1-1.748-4.242,43.555,43.555,0,0,1,.324,5.731v6.347h-5.5V657.625H661.3l4.112,7.739a33.689,33.689,0,0,1,1.878,4.307c-.162-1.327-.194-3.562-.194-5.051v-6.994h5.5v22.569Z" transform="translate(-634.712 -657.236)" fill="#02744f"/>
      <path d="M872.116,680.194V657.625h5.926v22.569Z" transform="translate(-830.021 -657.236)" fill="#02744f"/>
      <path d="M976.155,676.981a9.482,9.482,0,0,1-7.383-3.109,12.069,12.069,0,0,1-2.59-8.128,13.957,13.957,0,0,1,1.554-6.994c1.91-3.529,5.181-5.116,9.131-5.116,2.3,0,4.727.648,5.764,1.651l-2.461,4.274a5.421,5.421,0,0,0-3.367-1.2,3.436,3.436,0,0,0-2.526.874c-1.1,1.133-1.457,2.3-1.457,4.954,0,3.724.162,5.5,1.1,6.606a3.683,3.683,0,0,0,2.882,1.425,5.322,5.322,0,0,0,3.886-1.49l2.493,3.951C981.757,676.01,979.458,676.981,976.155,676.981Z" transform="translate(-914.923 -653.635)" fill="#02744f"/>
      <path d="M1160.635,680.194V657.625h13.114l-.421,4.76h-6.9v3.788h5.634v4.6h-5.634v4.6h7.739v4.825Z" transform="translate(-1090.433 -657.236)" fill="#02744f"/>
      <path d="M1337.1,672.164h-1.813v8.03h-5.8V657.625h7.35c5.731,0,9.1,1.878,9.1,7.026C1345.942,667.987,1344.485,672.164,1337.1,672.164Zm.194-9.779h-2.008v5.181h1.684c1.813,0,2.655-.486,2.655-2.946C1339.628,662.741,1338.689,662.385,1337.3,662.385Z" transform="translate(-1242.842 -657.236)" fill="#02744f"/>
      <path d="M1537.379,680.194h-12.434V657.625h5.861V675.4h7.674Z" transform="translate(-1419.254 -657.236)" fill="#02744f"/>
      <path d="M1677.048,680.194l-1.166-4.339h-5.343l-1.231,4.339h-6.088l7.253-22.569h6.023l6.832,22.569Zm-3.3-12.92a17.588,17.588,0,0,1-.421-3.044,27.433,27.433,0,0,1-.615,3.465l-.906,3.691h2.914Z" transform="translate(-1544.06 -657.236)" fill="#02744f"/>
      <path d="M1887.263,676.981a9.481,9.481,0,0,1-7.383-3.109,12.069,12.069,0,0,1-2.59-8.128,13.958,13.958,0,0,1,1.554-6.994c1.91-3.529,5.181-5.116,9.131-5.116,2.3,0,4.728.648,5.764,1.651l-2.461,4.274a5.421,5.421,0,0,0-3.368-1.2,3.437,3.437,0,0,0-2.526.874c-1.1,1.133-1.457,2.3-1.457,4.954,0,3.724.162,5.5,1.1,6.606a3.683,3.683,0,0,0,2.882,1.425,5.322,5.322,0,0,0,3.886-1.49l2.493,3.951C1892.865,676.01,1890.566,676.981,1887.263,676.981Z" transform="translate(-1737.275 -653.635)" fill="#02744f"/>
    </g>
    <g transform="translate(-273.001 537.946)">
      <path d="M446.726,1006.192a4.3,4.3,0,0,1-3.347-1.409,5.471,5.471,0,0,1-1.174-3.684,6.328,6.328,0,0,1,.7-3.171,4.408,4.408,0,0,1,4.14-2.319,4.2,4.2,0,0,1,2.613.749l-1.116,1.938a2.459,2.459,0,0,0-1.527-.543,1.558,1.558,0,0,0-1.145.4,2.769,2.769,0,0,0-.661,2.246c0,1.688.073,2.5.5,2.994a1.669,1.669,0,0,0,1.306.646,2.412,2.412,0,0,0,1.761-.675l1.13,1.791A4.552,4.552,0,0,1,446.726,1006.192Z" transform="translate(-442.205 -992.526)" fill="#02744f"/>
      <path d="M530.345,1007.648V997.417h5.945l-.191,2.158h-3.127v1.717h2.554v2.085h-2.554v2.084h3.508v2.187Z" transform="translate(-521.759 -994.158)" fill="#02744f"/>
      <path d="M611.829,1007.648l-1.805-3.552a15.835,15.835,0,0,1-.793-1.923,19.757,19.757,0,0,1,.147,2.6v2.877h-2.5V997.417h2.525l1.864,3.508a15.231,15.231,0,0,1,.851,1.952c-.073-.6-.088-1.615-.088-2.29v-3.171h2.5v10.231Z" transform="translate(-590.84 -994.158)" fill="#02744f"/>
      <path d="M704.843,999.59h-2.378v8.058h-2.657V999.59H697.43v-2.173h7.721Z" transform="translate(-672.567 -994.158)" fill="#02744f"/>
      <path d="M789.115,1007.648l-1.072-2.862c-.4-1.057-.631-1.189-1.2-1.189v4.051h-2.628V997.417h3.523c3.009,0,3.978,1.218,3.978,2.921a2.574,2.574,0,0,1-2.128,2.862,2.107,2.107,0,0,1,1.027,1.1c.338.69,1.2,2.583,1.541,3.347Zm-1.541-8.073h-.734v2.084h.749c.9,0,1.2-.426,1.2-1.116C788.792,999.81,788.4,999.575,787.573,999.575Z" transform="translate(-750.895 -994.158)" fill="#02744f"/>
      <path d="M877.108,1006.192c-2.965,0-4.609-1.967-4.609-5.035,0-3.64,2-5.549,4.7-5.549,3.479,0,4.492,2.657,4.492,4.9C881.688,1003.448,880.763,1006.192,877.108,1006.192Zm.015-8.528c-1.189,0-1.688,1.248-1.688,3.2,0,2.613.631,3.259,1.718,3.259,1.115,0,1.6-.661,1.6-3.288C878.752,998.281,878.253,997.664,877.123,997.664Z" transform="translate(-830.581 -992.526)" fill="#02744f"/>
      <path d="M1022.471,1006.18c-.44.851-1.571,1.644-3.6,1.644-1.615,0-2.745-.426-3.347-1.277-.4-.543-.5-.807-.5-2.172v-6.958h2.642v6.679c0,.939.293,1.571,1.218,1.571s1.2-.528,1.2-1.526v-6.723h2.628v7.075A3.492,3.492,0,0,1,1022.471,1006.18Z" transform="translate(-959.227 -994.158)" fill="#02744f"/>
      <path d="M1117.757,1007.648l-1.805-3.552a15.815,15.815,0,0,1-.793-1.923,19.731,19.731,0,0,1,.147,2.6v2.877h-2.5V997.417h2.525l1.864,3.508a15.24,15.24,0,0,1,.851,1.952c-.073-.6-.088-1.615-.088-2.29v-3.171h2.5v10.231Z" transform="translate(-1047.482 -994.158)" fill="#02744f"/>
      <path d="M1210.891,1007.648V997.417h2.686v10.231Z" transform="translate(-1136.009 -994.158)" fill="#02744f"/>
      <path d="M1251.837,1007.648h-2.363l-3.479-10.231h2.892l1.292,4.213a13.473,13.473,0,0,1,.484,1.923h.015a13.4,13.4,0,0,1,.543-2l1.453-4.139h2.774Z" transform="translate(-1167.693 -994.158)" fill="#02744f"/>
      <path d="M1350.557,1007.648V997.417h5.945l-.191,2.158h-3.127v1.717h2.554v2.085h-2.554v2.084h3.508v2.187Z" transform="translate(-1262.069 -994.158)" fill="#02744f"/>
      <path d="M1432,1007.648l-1.071-2.862c-.4-1.057-.631-1.189-1.2-1.189v4.051h-2.628V997.417h3.523c3.009,0,3.978,1.218,3.978,2.921a2.574,2.574,0,0,1-2.128,2.862,2.108,2.108,0,0,1,1.027,1.1c.338.69,1.2,2.583,1.541,3.347Zm-1.541-8.073h-.734v2.084h.749c.9,0,1.2-.426,1.2-1.116C1431.674,999.81,1431.277,999.575,1430.455,999.575Z" transform="translate(-1331.15 -994.158)" fill="#02744f"/>
      <path d="M1518.4,1006.192a7.823,7.823,0,0,1-3.772-.925l.925-2.055a6.121,6.121,0,0,0,2.877.822c1.027,0,1.438-.382,1.438-.939,0-.455-.323-.661-1.027-.837l-1.2-.308a2.854,2.854,0,0,1-2.5-2.965c0-2.026,1.673-3.376,3.963-3.376a6.544,6.544,0,0,1,3.655,1l-1.262,1.864a4.505,4.505,0,0,0-2.3-.719c-.675,0-1.042.323-1.042.734,0,.337.235.675,1,.866l1.042.264c1.1.279,2.686.778,2.686,2.833C1522.881,1004.9,1521.061,1006.192,1518.4,1006.192Z" transform="translate(-1410.16 -992.526)" fill="#02744f"/>
      <path d="M1614.371,1007.648V997.417h2.686v10.231Z" transform="translate(-1500.183 -994.158)" fill="#02744f"/>
      <path d="M1661.408,999.59h-2.378v8.058h-2.657V999.59H1654v-2.173h7.721Z" transform="translate(-1535.947 -994.158)" fill="#02744f"/>
      <path d="M1736.947,977.456l-.528-1.967H1734l-.558,1.967h-2.76l3.288-10.231h2.73l3.1,10.231Zm-2.965-10.422-.807-1.292,3.2-1.776,1,1.659Zm1.468,4.565a7.974,7.974,0,0,1-.191-1.38,12.408,12.408,0,0,1-.279,1.571l-.411,1.673h1.321Z" transform="translate(-1605.161 -963.966)" fill="#02744f"/>
      <path d="M1837.132,1007.648l-1.071-2.862c-.4-1.057-.631-1.189-1.2-1.189v4.051h-2.627V997.417h3.523c3.009,0,3.978,1.218,3.978,2.921a2.574,2.574,0,0,1-2.128,2.862,2.107,2.107,0,0,1,1.027,1.1c.338.69,1.2,2.583,1.541,3.347Zm-1.541-8.073h-.734v2.084h.749c.9,0,1.2-.426,1.2-1.116C1836.809,999.81,1836.413,999.575,1835.59,999.575Z" transform="translate(-1696.818 -994.158)" fill="#02744f"/>
      <path d="M1925.039,1007.648V997.417h2.686v10.231Z" transform="translate(-1780.587 -994.158)" fill="#02744f"/>
      <path d="M1972.283,1006.192c-2.965,0-4.609-1.967-4.609-5.035,0-3.64,2-5.549,4.7-5.549,3.479,0,4.492,2.657,4.492,4.9C1976.863,1003.448,1975.938,1006.192,1972.283,1006.192Zm.015-8.528c-1.189,0-1.688,1.248-1.688,3.2,0,2.613.631,3.259,1.717,3.259,1.115,0,1.6-.661,1.6-3.288C1973.927,998.281,1973.428,997.664,1972.3,997.664Z" transform="translate(-1819.068 -992.526)" fill="#02744f"/>
    </g>
  </g>
</svg>
